<!--?xml version="1.0" standalone="no"?-->
              <svg id="sw-js-blob-svg" viewBox="0 0 100 100" xmlns="http://www.w3.org/2000/svg" version="1.1">
                    <defs> 
                        <linearGradient id="sw-gradient" x1="0" x2="1" y1="1" y2="0">
                            <stop id="stop1" stop-color="rgba(101, 163, 236, 1)" offset="0%"></stop>
                            <stop id="stop2" stop-color="rgba(244, 124, 153, 1)" offset="100%"></stop>
                        </linearGradient>
                    </defs>
                <path fill="url(#sw-gradient)" d="M16.2,-20.8C23.1,-17.2,32.4,-15.4,35.9,-10.3C39.3,-5.3,37,3,33.7,10.2C30.3,17.4,26,23.6,20.2,27.7C14.4,31.7,7.2,33.6,1.2,32C-4.8,30.3,-9.6,25.1,-16.4,21.4C-23.2,17.7,-32,15.5,-36.5,9.9C-41,4.3,-41.2,-4.5,-36.7,-9.9C-32.2,-15.3,-23,-17.2,-16.1,-20.7C-9.2,-24.3,-4.6,-29.5,0,-29.5C4.6,-29.5,9.2,-24.3,16.2,-20.8Z" width="100%" height="100%" transform="translate(50 50)" stroke-width="0" style="transition: all 0.3s ease 0s;" stroke="url(#sw-gradient)"></path>
              </svg>