<svg width="267" height="276" viewBox="0 0 267 276" fill="none" xmlns="http://www.w3.org/2000/svg">
<path d="M239.891 120.286C239.891 186.718 186.19 240.572 119.945 240.572C53.7016 240.572 0 186.718 0 120.286C0 53.8539 53.7016 0 119.945 0C186.19 0 239.891 53.8539 239.891 120.286Z" fill="#9B7EDE"/>
<mask id="mask0_3_2" style="mask-type:alpha" maskUnits="userSpaceOnUse" x="36" y="43" width="231" height="233">
<path d="M165.402 43.6155L36.6298 141.123L138.168 275.98L266.94 178.472L165.402 43.6155Z" fill="#512EA3"/>
</mask>
<g mask="url(#mask0_3_2)">
<path d="M240.011 120.98C240.011 187.116 186.55 240.73 120.602 240.73C54.6532 240.73 1.19125 187.116 1.19125 120.98C1.19125 54.8449 54.6532 1.23145 120.602 1.23145C186.55 1.23145 240.011 54.8449 240.011 120.98Z" fill="#8561D9"/>
</g>
<path d="M110.08 188.5C155.963 188.5 193.159 158.892 193.159 122.369C193.159 85.8453 155.963 56.2376 110.08 56.2376C64.1964 56.2376 27.0007 85.8453 27.0007 122.369C27.0007 158.892 64.1964 188.5 110.08 188.5Z" fill="#F47C99"/>
<path d="M47.7707 161.422H76.8484V197.873C76.8484 201.324 74.0587 204.121 70.6174 204.121H54.0013C50.5601 204.121 47.7707 201.324 47.7707 197.873V161.422Z" fill="#F47C99"/>
<path d="M136.042 161.422H165.12V197.873C165.12 201.324 162.33 204.121 158.889 204.121H142.273C138.831 204.121 136.042 201.324 136.042 197.873V161.422Z" fill="#F47C99"/>
<path d="M182.952 149.063L183.721 111.303L199.367 111.623C202.808 111.694 205.54 114.549 205.469 117.999L204.955 143.263C204.885 146.713 202.038 149.453 198.598 149.382L182.952 149.063Z" fill="#F47C99"/>
<path d="M158.37 113.517C162.098 113.517 165.12 110.719 165.12 107.268C165.12 103.817 162.098 101.019 158.37 101.019C154.642 101.019 151.62 103.817 151.62 107.268C151.62 110.719 154.642 113.517 158.37 113.517Z" fill="#525252"/>
<path d="M26.1755 91.4052C27.5689 90.2583 29.6004 90.4038 30.8209 91.7379L38.5804 100.22C40.2106 102.001 39.3408 104.905 37.0088 105.466C35.9656 105.717 34.8685 105.407 34.1016 104.648L25.9416 96.5623C24.484 95.1178 24.5934 92.7077 26.1755 91.4052Z" fill="#F47C99"/>
<path d="M123.455 64.1443C123.455 62.7061 122.344 61.727 120.858 61.5405L114.627 60.9811L111.512 60.8878L108.396 60.7946L102.165 60.9811L95.9348 61.5405C94.454 61.727 93.3384 62.7061 93.3384 64.1443C93.3384 65.5821 94.5009 66.5757 95.9348 66.5757L102.165 66.2027L108.396 66.0162L114.627 66.2027L120.858 66.5757C122.292 66.5757 123.455 65.5821 123.455 64.1443Z" fill="#8561D9"/>
<path d="M164.511 43.5949C160.339 43.1392 156.109 43.7598 152.169 45.4061C148.23 47.0524 144.693 49.677 141.85 53.0647C139.005 56.4528 136.935 60.507 135.81 64.8954C134.684 69.2835 134.534 73.8807 135.372 78.309L161.413 72.1319L164.511 43.5949Z" fill="#F47C99"/>
<path d="M110.599 51.0302C122.357 51.0302 131.888 41.472 131.888 29.6809C131.888 17.8899 122.357 8.33147 110.599 8.33147C98.8417 8.33147 89.31 17.8899 89.31 29.6809C89.31 41.472 98.8417 51.0302 110.599 51.0302Z" fill="#FFDB1E"/>
<path d="M110.599 46.8644C120.063 46.8644 127.734 39.1711 127.734 29.6809C127.734 20.1906 120.063 12.4972 110.599 12.4972C101.136 12.4972 93.4641 20.1906 93.4641 29.6809C93.4641 39.1711 101.136 46.8644 110.599 46.8644Z" fill="#F5B91D"/>
<path d="M35.8851 87.5409C32.5363 93.5006 29.0056 96.6 29.0056 98.5436C29.0056 100.487 21.5682 92.9549 21.5682 86.9814C21.5682 81.0075 28.0759 75.9787 33.0961 77.4706C36.4848 77.4706 37.1866 85.2243 35.8851 87.5409Z" fill="#F47C99"/>
<path d="M30.679 85.2243C30.679 86.5297 29.4163 88.5811 29.0056 88.5811C28.5948 88.5811 27.704 86.7304 27.704 85.5973C27.704 84.4642 29.7104 82.6135 30.1212 82.6135C30.5319 82.6135 30.8649 84.1054 30.679 85.2243Z" fill="#9B7EDE"/>
<path d="M32.7242 92.1243C32.7242 93.7721 25.8447 98.8378 20.8245 98.4649C17.2918 97.9054 12.4575 94.9216 14.6887 91.7514C17.2918 90.2595 18.7793 94.3622 23.4276 92.4973C26.2001 92.4973 32.7242 90.4765 32.7242 92.1243Z" fill="#F47C99"/>
</svg>
